<?xml version="1.0" encoding="UTF-8"?>
<svg id="Layer_2" data-name="Layer 2" xmlns="http://www.w3.org/2000/svg" viewBox="0 0 331.65 363.55">
  <defs>
    <style>
      .cls-1 {
        fill: #0077b8;
      }

      .cls-2 {
        fill: #82cbe4;
      }

      .cls-3 {
        fill: #0096c7;
      }
    </style>
  </defs>
  <path class="cls-3" d="M147.63,363.55c-7.2-4.17-14.39-8.34-21.59-12.51-10.19-5.9-20.49-11.64-30.49-17.85-1.88-1.16-3.68-4.17-3.7-6.34-.25-26.22-.29-52.45,.05-78.68,.03-2.44,2.52-5.78,4.8-7.12,26.09-15.4,52.24-30.72,78.7-45.47,5.47-3.05,6.68-6.62,6.67-12.11-.1-57.95-.07-115.91-.03-173.86,0-2.83,.39-5.65,.66-9.4,19.17,11.11,37.38,21.55,55.41,32.31,1.69,1.01,3.08,4.02,3.09,6.11,.17,60.91,.19,121.83-.07,182.74-.01,2.42-2.47,5.77-4.73,7.09-27.06,15.82-54.27,31.39-81.52,46.89-3.73,2.12-5.76,4.74-5.07,9.12,.07,.41,0,.84,0,1.27,0,25.69,0,51.37,0,77.06-.73,.25-1.47,.5-2.2,.75Z"/>
  <path class="cls-1" d="M272.55,52.32c8.79,4.95,16.27,9.08,23.68,13.35,10.38,5.99,20.83,11.89,30.95,18.32,2.17,1.38,4.28,4.83,4.29,7.33,.24,60.68,.25,121.35-.02,182.03-.01,2.66-2.48,6.41-4.88,7.81-41.77,24.41-83.7,48.53-125.61,72.69-4.55,2.62-8.97,5.82-13.88,7.32-4.43,1.35-9.45,.81-14.22,.88-.58,0-1.83-1.78-1.65-2.08,.63-1.06,1.7-2.55,2.67-2.59,4.13-.21,4.76-2.55,6.31-6.09,6.88-15.66,.68-31.5,1.65-47.18,.34-5.41,1.66-8.67,6.68-11.49,26.39-14.82,52.49-30.18,78.79-45.17,4.02-2.29,5.31-5.11,5.3-9.65-.13-59.2-.07-118.4-.07-177.59,0-2.08,0-4.17,0-7.89Z"/>
  <path class="cls-2" d="M149.83,105.98c0,5.85,0,10.24,0,14.62,0,16.07,.15,32.14-.18,48.2-.05,2.4-1.81,5.78-3.8,6.96-26.1,15.37-52.3,30.57-78.67,45.46-5.84,3.29-8.88,6.58-8.67,14.04,.65,23.24,.24,46.51,.24,69.77,0,2.04,0,4.08,0,7.22-16.72-9.65-32.5-18.77-48.29-27.88-1.46-.84-2.91-1.73-4.44-2.42C1.44,279.9-.07,276.68,0,271.49c.34-24.1,.4-48.21,.05-72.3-.08-5.43,1.71-8.48,6.18-11.04,29.41-16.78,58.73-33.7,88.08-50.59,16.58-9.55,33.15-19.14,49.73-28.69,1.4-.81,2.9-1.46,5.79-2.89Z"/>
  <path class="cls-2" d="M149.29,0c.25,3.11,.52,4.92,.52,6.73,.03,18.4-.14,36.79,.13,55.19,.06,4.48-1.57,6.75-5.31,8.9-36.5,20.92-72.89,42.03-109.31,63.09-10.02,5.8-20.01,11.65-30.04,17.43-1.23,.71-2.6,1.15-4.71,2.07-.16-2.63-.39-4.62-.4-6.61-.03-18.4,.04-36.79-.09-55.19-.03-3.7,.78-5.98,4.4-8.05C48.29,58.48,91.97,33.15,135.67,7.89c4.14-2.4,8.28-4.8,13.61-7.89Z"/>
</svg>