<?xml version="1.0" encoding="UTF-8"?>
<svg id="Layer_1" data-name="Layer 1" xmlns="http://www.w3.org/2000/svg" viewBox="0 0 250.26 286.79">
  <defs>
    <style>
      .cls-1 {
        fill: #0077b8;
      }

      .cls-2 {
        fill: #0096c7;
      }
    </style>
  </defs>
  <path class="cls-1" d="M202.29,248.02V95.07c-18.27,5.06-19.84,6.98-19.83,22.31,0,44.17-.19,88.34,.19,132.5,.06,7.34-2.19,11.26-8.64,14.6-12.05,6.26-23.57,13.54-38.58,22.3v-101.42c-13.57,3.52-20.48,7.95-19.64,21.17,1.08,17.13,.29,34.38,.18,51.58-.03,4.16-.57,8.31-1.12,15.83-16.38-9.69-30.56-18.07-44.74-26.46,.21-19.04-2.01-38.6,1.86-56.87,1.47-6.95,16.91-10.95,25.99-16.27,3.03-1.77,5.9-4.07,9.17-5.11,24.4-7.78,31.21-25.15,27.26-48.75-2.18-13.06,2.4-21.38,15.06-27.8,23.65-11.99,46.16-26.2,69.19-39.41,11.76-6.75,31.48,4.02,31.53,17.49,.17,47.29,.1,94.59-.05,141.88,0,2.93-.46,7.37-2.32,8.53-14,8.76-28.41,16.87-45.5,26.82Z"/>
  <path class="cls-2" d="M185.07,24.55c-24.98,14.54-47.13,27.53-69.38,40.35-19.95,11.5-39.82,23.15-60.08,34.06-11.21,6.04-5.99,15.26-6.92,25.88,22.25-12.61,43-24.37,66.17-37.51,0,19.2,.37,36.08-.38,52.91-.12,2.62-5.02,5.53-8.22,7.44-16.42,9.8-32.84,19.63-49.62,28.79-6.47,3.53-8.51,7.98-8.3,14.96,.4,13.43,.12,26.88,.12,43.88-17.69-10.19-32.15-18.16-46.11-26.94-2.01-1.26-2.2-6.38-2.21-9.72C0,160.75-.19,122.84,.44,84.94c.08-4.66,3.76-11.21,7.73-13.57C48.1,47.7,88.33,24.54,128.82,1.84c4.11-2.3,11.37-2.45,15.61-.39,13.12,6.39,25.49,14.33,40.64,23.1Z"/>
</svg>